<?xml version="1.0" ?>
<svg id="Layer_1" style="enable-background:new 0 0 512 512;" version="1.1" viewBox="0 0 512 512" xml:space="preserve"
     xmlns="http://www.w3.org/2000/svg"><g><path d="M484,185.6c0-33.5-13.1-65-36.7-88.7L358.6,8.1l-88.7,88.7c-5.9,5.9-11,12.2-15.5,18.9L208,69.3L80.6,196.6   c-70.2,70.2-70.2,184.4,0,254.6c35.1,35.1,81.2,52.6,127.3,52.6s92.2-17.5,127.3-52.6c34-34,52.7-79.2,52.7-127.3   c0-5.4-0.3-10.9-0.7-16.2c22.7-5.3,43.3-16.7,60-33.4C471,250.6,484,219.1,484,185.6z M384.4,287.8c-6.9-34.3-23.8-65.9-49.1-91.2   L288,149.4l-14.1,14.1l47.2,47.2C351.3,241,368,281.2,368,323.9s-16.6,82.9-46.9,113.2c-62.4,62.4-163.9,62.4-226.3,0   s-62.4-163.9,0-226.3L207.9,97.6l36.3,36.3c-20.8,46.2-12.3,102.5,25.6,140.4c19.5,19.5,44.3,31.8,71.6,35.6l2.7-19.8   c-22.9-3.1-43.7-13.5-60.2-29.9c-41.1-41.1-41.1-108,0-149.2l74.6-74.6l74.6,74.6c19.9,19.9,30.9,46.4,30.9,74.6   s-11,54.7-30.9,74.6C419.4,273.8,402.8,283.3,384.4,287.8z"/><path
        d="M390.9,242.5l9.9,17.4c6.6-3.8,12.7-8.4,18.1-13.9l-14.1-14.1C400.7,236,396,239.6,390.9,242.5z"/><path
        d="M419,125.1l-14.1,14.1c12.4,12.4,19.2,28.8,19.2,46.3c0,11.4-3,22.6-8.5,32.4l17.4,9.9c7.3-12.8,11.2-27.4,11.2-42.3   C444,162.7,435.1,141.3,419,125.1z"/><path
        d="M69.5,303.1c-4.4,29.2,0.4,58.5,13.8,84.6l17.8-9.1c-23.8-46.6-15-102.7,22-139.6L109,224.9   C87.6,246.2,74,273.3,69.5,303.1z"/><path
        d="M95,406.7c4.2,5.7,8.9,11.2,13.9,16.2l14.1-14.1c-4.3-4.3-8.3-9-11.9-13.9L95,406.7z"/></g></svg>