<svg height="512pt" viewBox="0 0 512 512" width="512pt" xmlns="http://www.w3.org/2000/svg">
    <path d="m31.640625 315.121094c44.269531 29.515625 103.097656 29.746094 147.71875 0l18.230469-12.152344c3.394531 4.210938 7.230468 8.050781 11.441406 11.441406l-12.152344 18.230469c-7.265625 10.894531-12.816406 22.722656-16.550781 35.144531-7.066406-4.792968-13.695313-10.230468-19.789063-16.324218-5.855468-5.859376-15.351562-5.859376-21.210937 0-5.859375 5.855468-5.859375 15.351562 0 21.210937 10.625 10.625 22.542969 19.6875 35.53125 27.027344-.113281 2.261719-.191406 4.527343-.191406 6.800781 0 9.839844 1.0625 19.546875 3.136719 28.972656-21.667969-9.769531-41.945313-23.84375-59.691407-41.585937-5.855469-5.859375-15.351562-5.859375-21.210937 0-5.859375 5.855469-5.859375 15.355469 0 21.210937 27.417968 27.421875 60.257812 47.28125 95.320312 57.71875 1.46875 2.558594 3.011719 5.078125 4.65625 7.542969 13.207032 19.8125 35.308594 31.640625 59.121094 31.640625s45.914062-11.828125 59.121094-31.640625c14.53125-21.796875 22.210937-47.335937 22.210937-73.859375s-7.679687-52.0625-22.210937-73.859375l-12.152344-18.230469c4.210938-3.394531 8.046875-7.230468 11.441406-11.441406l18.230469 12.152344c10.894531 7.261718 22.722656 12.8125 35.144531 16.550781-4.792968 7.066406-10.234375 13.695313-16.324218 19.789063-5.859376 5.855468-5.859376 15.351562 0 21.210937 5.855468 5.855469 15.351562 5.859375 21.210937 0 10.625-10.625 19.6875-22.542969 27.027344-35.527344 12.105469.601563 23.929687-.34375 35.773437-2.945312-9.769531 21.664062-23.84375 41.941406-41.585937 59.6875-5.859375 5.855469-5.859375 15.351562 0 21.210937 5.855469 5.859375 15.351562 5.859375 21.210937 0 27.421875-27.417968 47.28125-60.257812 57.71875-95.324218 2.554688-1.464844 5.074219-3.007813 7.542969-4.652344 19.8125-13.207032 31.640625-35.308594 31.640625-59.121094s-11.828125-45.914062-31.640625-59.121094c-44.273437-29.515625-103.101563-29.746094-147.71875 0l-18.230469 12.152344c-3.394531-4.210938-7.230468-8.050781-11.441406-11.441406l12.152344-18.230469c7.359375-11.035156 12.886718-22.875 16.601562-35.113281 7.046875 4.785156 13.660156 10.214844 19.738282 16.292968 5.855468 5.859376 15.351562 5.859376 21.214843 0 5.855469-5.859374 5.855469-15.355468-.003906-21.214843-10.601563-10.597657-22.488281-19.640625-35.441406-26.976563.566406-11.710937-.414063-23.476562-2.980469-34.984375 22.113281 9.703125 42.382812 23.496094 59.636719 40.75 2.929687 2.929688 6.765625 4.394531 10.605469 4.394531 3.835937 0 7.679687-1.464843 10.605468-4.394531 5.859375-5.855469 5.859375-15.355469 0-21.210937-26.617187-26.621094-59.460937-46.136719-95.324218-56.726563-1.464844-2.546875-3.003907-5.0625-4.652344-7.535156-13.421875-20.132813-36.074219-32.640625-59.121094-32.640625s-45.699219 12.507812-59.121094 32.640625c-29.710937 44.5625-29.710937 102.15625 0 146.71875l12.152344 18.230469c-4.210938 3.394531-8.050781 7.230468-11.441406 11.441406l-18.230469-12.152344c-10.894531-7.261718-22.726563-12.8125-35.144531-16.550781 4.792968-7.066406 10.230468-13.695313 16.324218-19.789063 5.859376-5.855468 5.859376-15.351562 0-21.210937-5.855468-5.859375-15.355468-5.859375-21.210937 0-10.625 10.625-19.6875 22.542969-27.03125 35.53125-2.257813-.113281-4.523437-.191406-6.796875-.191406-9.84375 0-19.546875 1.0625-28.976562 3.136719 9.773437-21.667969 23.84375-41.945313 41.589843-59.6875 5.859375-5.859376 5.859375-15.355469 0-21.214844-5.859375-5.855469-15.355469-5.855469-21.214843 0-27.417969 27.417968-47.277344 60.257812-57.714844 95.324218-2.558594 1.464844-5.078125 3.007813-7.542969 4.652344-19.8125 13.207032-31.640625 35.308594-31.640625 59.121094s11.828125 45.914062 31.640625 59.121094zm224.359375-104.121094c24.8125 0 45 20.1875 45 45s-20.1875 45-45 45-45-20.1875-45-45 20.1875-45 45-45zm34.160156 138.28125c22.816406 34.222656 22.816406 80.210938 0 114.4375-7.632812 11.445312-20.402344 18.28125-34.160156 18.28125s-26.527344-6.835938-34.160156-18.28125c-22.816406-34.226562-22.816406-80.210938 0-114.4375l14.03125-21.046875c6.410156 1.789063 13.15625 2.765625 20.128906 2.765625s13.71875-.976562 20.128906-2.765625zm59.121094-127.441406c34.226562-22.816406 80.210938-22.816406 114.4375 0 11.445312 7.632812 18.28125 20.402344 18.28125 34.160156s-6.835938 26.527344-18.28125 34.160156c-34.226562 22.816406-80.210938 22.816406-114.4375 0l-21.046875-14.03125c1.789063-6.410156 2.765625-13.15625 2.765625-20.128906s-.976562-13.71875-2.765625-20.128906zm-127.441406-59.121094c-22.96875-34.457031-22.96875-78.980469 0-113.4375 7.929687-11.894531 21.019531-19.28125 34.160156-19.28125s26.230469 7.386719 34.160156 19.28125c22.585938 33.882812 23.292969 78.496094 0 113.4375l-14.03125 21.046875c-6.410156-1.789063-13.15625-2.765625-20.128906-2.765625s-13.71875.976562-20.128906 2.765625zm-173.558594 59.121094c34.226562-22.816406 80.210938-22.816406 114.4375 0l21.046875 14.03125c-1.789063 6.410156-2.765625 13.15625-2.765625 20.128906s.976562 13.71875 2.765625 20.128906l-21.046875 14.03125c-34.222656 22.816406-80.210938 22.816406-114.4375 0-11.445312-7.632812-18.28125-20.402344-18.28125-34.160156s6.835938-26.527344 18.28125-34.160156zm0 0"/>
    <path d="m271 256c0 8.285156-6.714844 15-15 15s-15-6.714844-15-15 6.714844-15 15-15 15 6.714844 15 15zm0 0"/>
</svg>