<?xml version="1.0" encoding="iso-8859-1"?>
<!-- Generator: Adobe Illustrator 19.0.0, SVG Export Plug-In . SVG Version: 6.00 Build 0)  -->
<svg version="1.1" id="Capa_1" xmlns="http://www.w3.org/2000/svg" x="0px"
     y="0px"
     viewBox="0 0 512 512" style="enable-background:new 0 0 512 512;" xml:space="preserve">
<g>
	<g>
		<path d="M203.513,21.977C198.988,15.135,196,10.615,196,0h-30c0,19.635,6.924,30.108,12.487,38.523
			C183.012,45.365,186,49.885,186,60.5s-2.988,15.135-7.513,21.977C172.924,90.892,166,101.365,166,121h30
			c0-10.615,2.988-15.135,7.513-21.977C209.076,90.608,216,80.135,216,60.5S209.076,30.392,203.513,21.977z"/>
	</g>
</g>
    <g>
	<g>
		<path d="M143.513,21.977C138.988,15.135,136,10.615,136,0h-30c0,19.635,6.924,30.108,12.487,38.523
			C123.012,45.365,126,49.885,126,60.5s-2.988,15.135-7.513,21.977C112.924,90.892,106,101.365,106,121h30
			c0-10.615,2.988-15.135,7.513-21.977C149.076,90.608,156,80.135,156,60.5S149.076,30.392,143.513,21.977z"/>
	</g>
</g>
    <g>
	<g>
		<path d="M263.513,21.977C258.988,15.135,256,10.615,256,0h-30c0,19.635,6.924,30.108,12.487,38.523
			C243.012,45.365,246,49.885,246,60.5s-2.988,15.135-7.513,21.977C232.924,90.892,226,101.365,226,121h30
			c0-10.615,2.988-15.135,7.513-21.977C269.076,90.608,276,80.135,276,60.5S269.076,30.392,263.513,21.977z"/>
	</g>
</g>
    <g>
	<g>
		<path d="M323.513,21.977C318.988,15.135,316,10.615,316,0h-30c0,19.635,6.924,30.108,12.487,38.523
			C303.012,45.365,306,49.885,306,60.5s-2.988,15.135-7.513,21.977C292.924,90.892,286,101.365,286,121h30
			c0-10.615,2.988-15.135,7.513-21.977C329.076,90.608,336,80.135,336,60.5S329.076,30.392,323.513,21.977z"/>
	</g>
</g>
    <g>
	<g>
		<path d="M383.513,21.977C378.988,15.135,376,10.615,376,0h-30c0,19.635,6.924,30.108,12.487,38.523
			C363.012,45.365,366,49.885,366,60.5s-2.988,15.135-7.513,21.977C352.924,90.892,346,101.365,346,121h30
			c0-10.615,2.988-15.135,7.513-21.977C389.076,90.608,396,80.135,396,60.5S389.076,30.392,383.513,21.977z"/>
	</g>
</g>
    <g>
	<g>
		<path d="M456,185v36h-40v-15c0-30.327-24.673-55-55-55c-15.75,0-29.964,6.665-40,17.31C310.964,157.665,296.75,151,281,151
			s-29.964,6.665-40,17.31C230.964,157.665,216.75,151,201,151s-29.964,6.665-40,17.31C150.964,157.665,136.75,151,121,151
			c-30.327,0-55,24.673-55,55v15H26v30h40v206c0,30.327,24.673,55,55,55c15.75,0,29.964-6.665,40-17.31
			c10.036,10.645,24.25,17.31,40,17.31s29.964-6.665,40-17.31c10.036,10.645,24.25,17.31,40,17.31s29.964-6.665,40-17.31
			c10.036,10.645,24.25,17.31,40,17.31c30.327,0,55-24.673,55-55V251h70v-66H456z M146,457c0,13.785-11.215,25-25,25
			c-13.785,0-25-11.215-25-25V206c0-13.785,11.215-25,25-25c13.785,0,25,11.215,25,25V457z M226,457c0,13.785-11.215,25-25,25
			c-13.785,0-25-11.215-25-25V206c0-13.785,11.215-25,25-25c13.785,0,25,11.215,25,25V457z M306,457c0,13.785-11.215,25-25,25
			c-13.785,0-25-11.215-25-25V206c0-13.785,11.215-25,25-25c13.785,0,25,11.215,25,25V457z M386,457c0,13.785-11.215,25-25,25
			c-13.785,0-25-11.215-25-25V206c0-13.785,11.215-25,25-25c13.785,0,25,11.215,25,25V457z"/>
	</g>
</g>
    <g>
</g>
    <g>
</g>
    <g>
</g>
    <g>
</g>
    <g>
</g>
    <g>
</g>
    <g>
</g>
    <g>
</g>
    <g>
</g>
    <g>
</g>
    <g>
</g>
    <g>
</g>
    <g>
</g>
    <g>
</g>
    <g>
</g>
</svg>
