<svg id="Layer_1" height="512" viewBox="0 0 128 128" width="512" xmlns="http://www.w3.org/2000/svg" data-name="Layer 1">
    <path d="m43.721 39.731a6.271 6.271 0 1 0 -6.1 9.852 6.361 6.361 0 0 0 1.022.083 6.274 6.274 0 0 0 5.077-9.936zm-3.473 5.912a2.77 2.77 0 1 1 .631-3.868 2.774 2.774 0 0 1 -.631 3.869z"/>
    <path d="m82.428 110.212a5.017 5.017 0 0 0 .8.065 4.931 4.931 0 1 0 -.8-.065zm-.037-6.009a1.42 1.42 0 0 1 1.659 2.305 1.42 1.42 0 0 1 -1.658-2.306z"/>
    <path d="m84.77 64.2a1.75 1.75 0 0 0 .4 2.442l6.114 4.4a1.751 1.751 0 0 0 1.022.33 1.707 1.707 0 0 0 .281-.023 1.752 1.752 0 0 0 1.14-.705l25.7-35.706a1.75 1.75 0 0 0 -.4-2.442l-28.744-20.68a1.751 1.751 0 0 0 -2.443.4l-23.84 33.127-23.84-33.128a1.751 1.751 0 0 0 -2.443-.4l-28.739 20.685a1.75 1.75 0 0 0 -.4 2.442l25.7 35.706a1.752 1.752 0 0 0 1.14.705 1.707 1.707 0 0 0 .281.023 1.751 1.751 0 0 0 1.022-.33l6.114-4.4a1.75 1.75 0 0 0 .4-2.442 6.83 6.83 0 0 1 -.789-7.046l14.454 21.296-6.246 8.2a27.323 27.323 0 0 1 -10.422 8.5 11.177 11.177 0 1 0 15.613 11.8 30.636 30.636 0 0 1 4.619-12.814l3.536-5.219 3.531 5.2a30.642 30.642 0 0 1 4.627 12.826 11.178 11.178 0 1 0 15.613-11.8 27.311 27.311 0 0 1 -10.414-8.487l-6.257-8.205 14.456-21.3a6.83 6.83 0 0 1 -.786 7.045zm7.137 2.979-3.383-2.435a9.7 9.7 0 0 0 -1.562-11.444c-.12-.2-5.989-4.429-6.218-4.478a8.79 8.79 0 0 0 -6.193-.77 10.578 10.578 0 0 0 -5.161 2.923l-3.238-2.33a1.737 1.737 0 0 0 -.056-.228l15.366-21.347 25.9 18.637zm-27.907 1.955-13.529-17.751a5.724 5.724 0 0 1 2.194.084 7.271 7.271 0 0 1 4.233 2.9 1.751 1.751 0 0 0 2.443.4l4.659-3.355 4.658 3.352a1.751 1.751 0 0 0 2.443-.4 7.271 7.271 0 0 1 4.233-2.9 5.739 5.739 0 0 1 2.194-.083zm22.944-49.682 25.9 18.637-.057.079-.64.889-25.9-18.637.169-.234zm-2.744 3.809 25.9 18.639-.095.132-.6.837-25.9-18.637zm5.456-7.582 25.9 18.638-.671.932-25.9-18.637zm-71.663 26.351-.093-.13 25.9-18.639.7.968-25.9 18.638zm23.591-21.844.169.234-25.9 18.637-.64-.889-.057-.079 25.9-18.637zm-3.243-4.507.671.932-25.9 18.637-.671-.932zm1.136 49.068-3.383 2.435-15.454-21.474 25.9-18.637 15.36 21.35a1.737 1.737 0 0 0 -.056.228l-3.238 2.33a10.578 10.578 0 0 0 -5.161-2.923 8.781 8.781 0 0 0 -6.194.77c-.229.049-6.1 4.274-6.216 4.477a9.7 9.7 0 0 0 -1.558 11.444zm5.51-10.075 2.319-1.672 14.494 19.021-2.666 3.5zm12.57 37.509a34.093 34.093 0 0 0 -5.18 14.277 7.678 7.678 0 0 1 -1.854 4 7.784 7.784 0 0 1 -9.968 1.314 7.673 7.673 0 0 1 1.091-13.422 30.78 30.78 0 0 0 11.779-9.568l27.269-35.782 2.32 1.669zm17.025-3.388a30.771 30.771 0 0 0 11.772 9.557 7.675 7.675 0 0 1 1.091 13.417 7.784 7.784 0 0 1 -9.968-1.314 7.679 7.679 0 0 1 -1.854-3.995 34.1 34.1 0 0 0 -5.187-14.289l-4.321-6.369 2.915-4.3z"/>
    <path d="m95.56 42.385a6.27 6.27 0 1 0 -6.2 7.282 6.351 6.351 0 0 0 1.022-.083 6.273 6.273 0 0 0 5.181-7.2zm-3.941 2.628a2.771 2.771 0 1 1 .486-2.065 2.751 2.751 0 0 1 -.487 2.065z"/>
    <path d="m47.654 101.362a4.92 4.92 0 1 0 -2.885 8.915 5.008 5.008 0 0 0 .8-.065 4.92 4.92 0 0 0 2.082-8.85zm-1.722 4.824a1.421 1.421 0 1 1 .249-1.059 1.407 1.407 0 0 1 -.248 1.059z"/>
</svg>