<svg height="512pt" viewBox="-2 0 512 512" width="512pt" xmlns="http://www.w3.org/2000/svg">
    <path d="m268.59375 325.816406v-255.722656c0-8.324219-6.746094-15.074219-15.070312-15.074219-8.328126 0-15.074219 6.75-15.074219 15.074219v255.722656c-28.863281 6.828125-50.410157 32.792969-50.410157 63.710938 0 36.105468 29.375 65.480468 65.484376 65.480468 36.105468 0 65.480468-29.375 65.480468-65.480468 0-30.917969-21.546875-56.882813-50.410156-63.710938zm-15.070312 99.046875c-19.484376 0-35.335938-15.851562-35.335938-35.335937s15.851562-35.335938 35.335938-35.335938c19.484374 0 35.332031 15.851563 35.332031 35.335938s-15.851563 35.335937-35.332031 35.335937zm0 0"/>
    <path d="m424.46875 128.613281c6.144531 16.578125 22.113281 28.425781 40.800781 28.425781 23.984375 0 43.5-19.511718 43.5-43.5 0-23.984374-19.515625-43.496093-43.5-43.496093-18.6875 0-34.65625 11.847656-40.800781 28.421875h-100.582031v-28.097656c0-38.800782-31.5625-70.367188-70.363281-70.367188-38.800782 0-70.367188 31.566406-70.367188 70.367188v75.8125h-60.675781v-44.378907c16.574219-6.144531 28.421875-22.113281 28.421875-40.800781 0-23.984375-19.511719-43.496094-43.496094-43.496094s-43.496094 19.511719-43.496094 43.496094c0 18.6875 11.847656 34.65625 28.421875 40.800781v59.453125c0 8.324219 6.75 15.070313 15.074219 15.070313h75.75v47.519531h-139.660156c-8.324219 0-15.074219 6.75-15.074219 15.074219v59.449219c-16.574219 6.144531-28.421875 22.113281-28.421875 40.800781 0 23.984375 19.511719 43.5 43.496094 43.5s43.496094-19.515625 43.496094-43.5c0-18.6875-11.84375-34.65625-28.421876-40.800781v-44.378907h124.585938v35.292969c-14.5625 10.242188-26.816406 23.605469-35.738281 39.046875-10.707031 18.527344-16.367188 39.691406-16.367188 61.199219 0 67.53125 54.9375 122.472656 122.472657 122.472656 67.53125 0 122.472656-54.941406 122.472656-122.472656 0-21.507813-5.660156-42.671875-16.371094-61.199219-8.921875-15.441406-21.175781-28.800781-35.738281-39.046875v-80.175781h90.875v44.378906c-16.578125 6.140625-28.421875 22.109375-28.421875 40.796875 0 23.984375 19.511718 43.5 43.496094 43.5 23.984374 0 43.496093-19.511719 43.496093-43.5 0-18.6875-11.847656-34.65625-28.421875-40.796875v-59.453125c0-8.324219-6.75-15.074219-15.074218-15.074219h-105.949219v-50.34375zm40.800781-28.421875c7.363281 0 13.351563 5.988282 13.351563 13.347656 0 7.363282-5.988282 13.351563-13.351563 13.351563-7.359375 0-13.347656-5.988281-13.347656-13.351563 0-7.359374 5.988281-13.347656 13.347656-13.347656zm-357.863281-52.542968c7.359375 0 13.347656 5.988281 13.347656 13.351562s-5.988281 13.351562-13.347656 13.351562-13.351562-5.988281-13.351562-13.351562 5.992187-13.351562 13.351562-13.351562zm-63.910156 304.871093c-7.359375 0-13.347656-5.988281-13.347656-13.351562 0-7.359375 5.988281-13.347657 13.347656-13.347657s13.351562 5.988282 13.351562 13.347657c0 7.363281-5.992187 13.351562-13.351562 13.351562zm386.339844-44.886719c-7.363282 0-13.351563-5.988281-13.351563-13.351562 0-7.359375 5.988281-13.347656 13.351563-13.347656 7.359374 0 13.347656 5.988281 13.347656 13.347656 0 7.363281-5.988282 13.351562-13.347656 13.351562zm-83.988282 81.894532c0 50.910156-41.417968 92.324218-92.324218 92.324218-50.910157 0-92.328126-41.414062-92.328126-92.324218 0-32.691406 16.75-62.289063 44.804688-79.171875 4.53125-2.726563 7.300781-7.625 7.300781-12.914063v-227.074218c0-22.179688 18.042969-40.21875 40.222657-40.21875 22.175781 0 40.21875 18.039062 40.21875 40.21875v227.074218c0 5.289063 2.769531 10.191406 7.300781 12.914063 28.054687 16.882812 44.804687 46.480469 44.804687 79.171875zm0 0"/>
</svg>