<?xml version="1.0" encoding="iso-8859-1"?>
<!-- Uploaded to: SVG Repo, www.svgrepo.com, Generator: SVG Repo Mixer Tools -->
<svg fill="#000000" height="800px" width="800px" version="1.1" id="Layer_1" xmlns="http://www.w3.org/2000/svg" xmlns:xlink="http://www.w3.org/1999/xlink" 
	 viewBox="0 0 229.728 229.728" xml:space="preserve">
<g>
	<g>
		<g>
			<path d="M55.772,39.602c3.7,0,6.708-3.536,6.708-7.88s-3.008-7.88-6.708-7.88s-6.708,3.536-6.708,7.88
				C49.064,36.066,52.072,39.602,55.772,39.602z M55.772,26.11c2.448,0,4.44,2.516,4.44,5.608s-1.992,5.612-4.44,5.612
				s-4.44-2.516-4.44-5.612S53.32,26.11,55.772,26.11z"/>
			<path d="M227.756,149.326l-1.412-3.172c-1.16-2.588-2.316-5.18-3.416-7.8c-2.472-5.884-7.096-9.884-13.744-11.892
				c-4.868-1.472-9.94-1.928-15.3-1.42l5.796-46.244l0.016-0.248c0-0.26-0.004-0.528-0.052-0.8c-0.04,0.06-0.088,0.116-0.128,0.176
				c0.048-0.316,0.18-0.62,0.18-0.944c0-13.944-46.148-21.468-89.568-21.468c-13.692,0-27.284,0.716-39.476,2.076l-0.012-5.148
				c0.06-0.304,0.296-1.12,0.62-2.264c1.332-4.672,3.808-13.376,3.636-17.896c0-10.124-8.236-18.36-18.36-18.36
				c-10.124,0-18.36,8.236-18.36,18.404c0.072,3.28,1.88,10.076,3.728,16.752c0.464,1.692,0.82,2.936,0.872,3.104v7.856
				c0,0.448-0.024,0.808-0.044,1.172c-0.024,0.388-0.048,0.784-0.056,1.276c-14.88,3.812-22.116,8.56-22.116,14.492
				c0,0.292,0.048,0.576,0.088,0.86c-0.064,0.32-0.076,0.64-0.072,0.952l10.988,87.584c-0.164-0.032-0.32-0.072-0.484-0.104
				c-15.08-2.592-28.948,4.836-29.532,5.152L0,172.262l1.152,1.332c0.424,0.492,10.588,12.068,25.68,14.664
				c2.236,0.384,4.44,0.548,6.584,0.548c8.104,0,15.2-2.336,19.292-4.024c-3.396,2.024-8.232,5.628-10.96,10.944
				c-4.432,8.644-1.464,18.216-1.336,18.62l0.468,1.46l1.416-0.58c0.42-0.172,10.352-4.316,14.756-12.912
				c1.58-3.084,2.196-6.268,2.36-9.128c11.464,3.768,27.644,6.468,50.704,6.468c22.836,0,40.856-2.552,54.096-7.456
				c4.016,2.888,8.988,5.02,15.128,6.416c3.072,0.692,6.12,1.04,9.148,1.04c4.976,0,9.876-0.936,14.652-2.808
				c9.32-3.652,16.616-10.26,21.692-19.64c3.084-5.704,4.728-11.596,4.884-17.516C229.828,155.986,229.16,152.494,227.756,149.326z
				 M193.308,97.518c-2.24,2.972-8.048,5.896-16.868,8.396l0.552-11.24c0.032-0.628-0.452-1.16-1.08-1.188
				c-0.62-0.028-1.156,0.448-1.188,1.076l-0.588,11.964c-4.828,1.26-10.396,2.4-16.696,3.364l0.244-9.62
				c0.016-0.628-0.476-1.148-1.104-1.164c-0.752-0.044-1.144,0.48-1.16,1.104l-0.252,10c-5.988,0.852-12.56,1.544-19.64,2.044
				l0.056-7.488c0.004-0.624-0.5-1.136-1.124-1.144c-0.004,0-0.004,0-0.008,0c-0.62,0-1.128,0.504-1.132,1.128l-0.044,6.068
				c-2.568-4.228-5.128-8.46-7.688-12.692c28.144-1.156,54.98-5.404,67.2-12.472c0.036,0.004,0.056,0.04,0.092,0.04
				c0.46,0,0.776-0.312,0.956-0.704c0.404-0.26,0.776-0.52,1.14-0.788L193.308,97.518z M175.484,125.298l0.84-17.08
				c7.308-2.008,13.048-4.408,16.54-7.164l-2.14,17.112C188.044,120.694,182.828,123.15,175.484,125.298z M190.328,121.322
				l-0.536,4.272c-2.476,0.452-5.012,1.088-7.628,1.936c-2.42,0.784-4.708,1.724-6.924,2.74l0.128-2.636
				C181.756,125.83,186.896,123.718,190.328,121.322z M156.948,129.286l0.436-17.196c6.048-0.912,11.652-2.004,16.636-3.264
				l-0.84,17.108C168.5,127.19,163.06,128.322,156.948,129.286z M173.068,128.266l-0.156,3.188
				c-6.352,3.252-11.848,7.456-16.336,12.652l0.32-12.592C162.768,130.602,168.232,129.522,173.068,128.266z M145.392,130.81
				l-0.628-1.032c-3.096-5.084-6.16-10.188-9.252-15.276v-0.024c6.812-0.496,13.408-1.184,19.6-2.056l-0.436,17.22
				C151.728,130.074,148.62,130.462,145.392,130.81z M154.616,131.866l-0.344,13.548l-7.624-12.536
				C149.364,132.574,152.036,132.242,154.616,131.866z M123.216,94.202c-2.192-3.632-4.412-7.244-6.596-10.884
				c-2.812-4.696-6.16-8.96-9.988-12.94c1.088-0.012,2.168-0.028,3.3-0.028c43.368,0,74.828,6.056,80.728,12.164
				C180.576,88.142,155.936,93.126,123.216,94.202z M45.188,65.99l1.612-0.392l-0.088-1.656c-0.064-1.2-0.024-1.856,0.016-2.488
				c0.028-0.44,0.052-0.868,0.052-1.412v-7.856c0-0.452-0.084-0.804-1.016-4.172c-1.232-4.444-3.52-12.72-3.584-15.728
				c0-7.916,6.44-14.36,14.36-14.36c7.92,0,14.36,6.444,14.36,14.436c0.152,3.96-2.304,12.58-3.484,16.724
				c-0.668,2.348-0.752,2.672-0.752,3.1v9.904l2.24-0.268c12.592-1.508,26.852-2.308,41.232-2.308
				c50.424,0,85.568,9.204,85.568,17.468c0,1.44-1.072,2.908-3.104,4.352c-7.728-8.632-46.204-13.252-82.66-13.252
				c-1.816,0-3.656,0.016-5.496,0.036c-1.468-1.404-2.996-2.776-4.616-4.104c-2.464-2.224-5.056-3.248-8.108-2.952
				c-4.96,0.996-7.696,3.552-8.468,7.708c-27.532,1.44-52.26,5.32-55.128,12.868c-2.316-1.54-3.548-3.112-3.548-4.652
				C24.564,75.582,26.052,70.646,45.188,65.99z M89.38,78.002c6,3.472,10.808,8.552,15.544,16.376
				C68.896,93.91,41.392,88.754,30.152,82.81C30.904,77.878,49.38,72.798,83.4,71.03C84.34,73.898,86.276,76.206,89.38,78.002z
				 M27.432,101.414c4.168,3.08,11.148,5.708,19.992,7.828l0.9,17.736c-10.556-2.532-17.344-5.78-18.872-9.464L27.432,101.414z
				 M30,121.886c3.596,3.072,10.076,5.568,18.448,7.52l2.34,46.024c-3.652-2.856-8.82-6.12-15.072-8.032L30,121.886z M49.72,109.766
				c5.08,1.128,10.684,2.096,16.656,2.9l0.46,17.536c-6.012-0.748-11.452-1.652-16.216-2.7L49.72,109.766z M30.604,169.07
				c1.584,0.272,3.092,0.676,4.556,1.14l5.356,8.084l-8.888-1.52l-5.404-8.16C27.664,168.678,29.128,168.814,30.604,169.07z
				 M24.048,168.622l5.12,7.732l-7.608-1.3l-3.892-5.88C19.692,168.842,21.832,168.654,24.048,168.622z M15.724,169.53l3.38,5.104
				l-12.928-2.208C8.456,171.49,11.788,170.338,15.724,169.53z M27.32,185.47c-9.972-1.716-17.788-7.812-21.552-11.272l46.076,7.872
				C47.036,184.054,37.368,187.194,27.32,185.47z M42.912,178.702c-0.016-0.036,0-0.072-0.02-0.108l-4.876-7.36
				c6.344,2.584,11.28,6.484,14.064,9.032L42.912,178.702z M54.072,200.418c-2.964,5.784-9.004,9.42-11.812,10.864
				c-0.588-2.884-1.36-9.196,1.552-14.872c2.964-5.78,9.004-9.416,11.812-10.864C56.212,188.43,56.98,194.742,54.072,200.418z
				 M59.356,189.006c-0.276-3-0.896-5.116-0.956-5.3l-0.468-1.46l-0.024,0.008l-1.144-1.32c-0.144-0.168-1.424-1.612-3.608-3.536
				l-2.412-47.48c4.88,1.04,10.324,1.912,16.156,2.62l1.548,59.08C65.076,190.826,62.064,189.946,59.356,189.006z M68.652,112.958
				c6.252,0.784,12.848,1.388,19.624,1.8l0.128,17.296c-6.88-0.36-13.344-0.892-19.292-1.576L68.652,112.958z M70.556,192.094
				c0.056-0.14,0.164-0.256,0.16-0.416l-1.544-58.868c6.092,0.684,12.576,1.192,19.248,1.536l0.444,60.412
				C81.888,194.138,75.812,193.226,70.556,192.094z M110.788,195.658c-0.228,0-0.428,0.012-0.66,0.012
				c-6.992-0.004-13.26-0.272-18.996-0.716l-0.444-60.492c6.328,0.288,12.808,0.432,19.276,0.432c0.508,0,1.016-0.024,1.52-0.024
				L110.788,195.658z M111.512,132.594c-0.524,0.004-1.016,0.024-1.548,0.024c-6.708,0-13.136-0.168-19.292-0.452l-0.132-17.272
				c6.38,0.344,12.884,0.528,19.356,0.528c0.604,0,1.208-0.028,1.812-0.032L111.512,132.594z M111.812,105.946l-0.084,7.188
				c-0.62,0.004-1.208,0.024-1.836,0.024c-6.784,0-13.228-0.188-19.372-0.504l-0.04-5.392c-0.004-0.624-0.512-1.128-1.132-1.128
				c-0.004,0-0.004,0-0.008,0c-0.624,0.004-1.128,0.516-1.124,1.144l0.04,5.244c-7.036-0.412-13.624-1-19.664-1.76l-0.216-8.216
				c-0.016-0.616-0.52-1.104-1.132-1.104c-0.008,0-0.02,0-0.032,0c-0.624,0.016-1.116,0.536-1.1,1.164l0.204,7.852
				c-6.188-0.836-11.792-1.832-16.716-2.952l-0.532-10.428c-0.036-0.628-0.612-1.084-1.192-1.076
				c-0.624,0.032-1.104,0.564-1.076,1.188l0.496,9.764c-10.312-2.544-17.332-5.624-20.284-8.796l-1.744-13.904
				c12.48,9.024,47.812,13.928,82.1,14.176c1.48,2.484,2.984,4.948,4.472,7.428C111.844,105.89,111.812,105.91,111.812,105.946z
				 M132.784,194.658c-5.876,0.552-12.428,0.888-19.728,0.96l0.696-60.788c5.112-0.056,10.208-0.22,15.24-0.5
				c0.192,0.316,0.38,0.636,0.576,0.956c1.164,1.924,2.32,3.852,3.488,5.776l-0.392,53.288
				C132.656,194.466,132.748,194.546,132.784,194.658z M117.532,115.298c3.388,5.616,6.752,11.248,10.148,16.86
				c-4.46,0.22-9.104,0.356-13.904,0.408l0.196-17.208C115.16,115.342,116.344,115.326,117.532,115.298z M113.996,113.102
				l0.04-3.608c0.716,1.192,1.436,2.388,2.156,3.58C115.468,113.086,114.732,113.094,113.996,113.102z M153.104,191.426
				c-5.176,1.256-11.184,2.308-18.228,3.048c0.004-0.04,0.044-0.068,0.044-0.108l0.364-49.596
				c4.508,7.448,9.024,14.892,13.496,22.36c1.944,3.244,3.408,6.836,4.684,10.152L153.104,191.426z M155.388,190.85l0.22-8.62
				c1.364,2.652,3.064,4.984,5.096,7.024C159.048,189.806,157.284,190.342,155.388,190.85z M225.74,159.598
				c-0.148,5.356-1.588,10.496-4.408,15.716c-4.612,8.524-11.22,14.52-19.636,17.82c-6.92,2.708-14.144,3.244-21.456,1.588
				c-11.868-2.688-18.996-8.208-22.44-17.372c-1.444-3.84-3.188-8.272-5.584-12.276c-6.372-10.644-12.8-21.252-19.228-31.864
				c-8.132-13.416-16.26-26.832-24.276-40.324c-5.216-8.772-10.556-14.432-17.324-18.348c-2.316-1.34-3.688-2.916-4.292-4.928
				c0.428-2.6,2.012-3.948,5.352-4.608c1.496-0.112,3.092,0.532,4.768,2.04c6.62,5.436,11.848,11.432,15.98,18.332
				c9.304,15.544,18.732,31.016,28.152,46.492l10.72,17.616c0.2,0.32,0.408,0.632,0.624,0.952l1.868,2.832l2.724-3.628
				c0.636-0.868,1.248-1.704,1.912-2.492c6.196-7.356,14.116-12.528,24.212-15.808c9.1-2.96,17.148-3.304,24.628-1.048
				c5.528,1.668,9.196,4.816,11.212,9.612c1.112,2.644,2.28,5.26,3.452,7.88l1.408,3.164
				C225.288,153.61,225.824,156.442,225.74,159.598z"/>
			<path d="M209.288,136.974c-3.332-1.776-6.868-2.244-11.852-2.448h-0.068l-0.064,0.004c-15.344,1.128-27.34,7.496-35.656,18.92
				c-1.208,1.664-2.196,3.848-2.928,6.5c-1.22,4.404,0.412,8.044,4.592,10.256c3.02,1.596,6.4,2.376,10.296,2.376
				c0.384,0,0.772-0.008,1.168-0.024c11.384-0.428,21.6-4.524,30.364-12.168c4.792-4.18,7.58-8.324,8.768-13.036
				C215.044,142.85,213.404,139.166,209.288,136.974z M211.716,146.802c-1.072,4.244-3.632,8.016-8.064,11.88
				c-8.36,7.292-18.104,11.2-28.956,11.608c-3.968,0.164-7.364-0.528-10.316-2.092c-3.236-1.712-4.404-4.284-3.468-7.648
				c0.66-2.388,1.528-4.328,2.58-5.768c7.896-10.848,19.304-16.9,33.92-17.992c4.62,0.196,7.876,0.62,10.812,2.184
				C211.42,140.674,212.592,143.31,211.716,146.802z"/>
		</g>
	</g>
</g>
</svg>