<?xml version="1.0" ?>
<svg data-name="Layer 1" id="Layer_1" viewBox="0 0 512 512" xmlns="http://www.w3.org/2000/svg">
    <title/>
    <path d="M483.39,194H394.68V69.64h88.71a6.06,6.06,0,1,0,0-12.11H394.68V45.26a6.06,6.06,0,0,0-6.06-6.06H333A6.06,6.06,0,0,0,327,45.26V96.94H278.72c-102.29,0-185.51,83.23-185.51,185.53v68.07a6.06,6.06,0,1,0,12.12,0V282.47c0-95.62,77.79-173.41,173.39-173.41H327v32.18h-42.6A119.28,119.28,0,0,0,165.23,260.39v90.15a6.06,6.06,0,1,0,12.12,0V260.39a107.14,107.14,0,0,1,107-107H327v28.37c-.09,0-.16,0-.25,0H305.86a72.48,72.48,0,0,0-72.4,72.4v96.46a6.06,6.06,0,1,0,12.12,0V254.08a60.35,60.35,0,0,1,60.28-60.29h20.86a2.21,2.21,0,0,0,.25,0v24.63a6.06,6.06,0,0,0,6.06,6.06h55.59a6.06,6.06,0,0,0,6.06-6.06V206.12h88.71a6.06,6.06,0,0,0,0-12.12ZM382.56,212.32H339.08v-161h43.48v161Z"/>
    <path d="M397.76,434.55l-10.35,7.8c-32.25,24.28-88.79,24.29-121,0l-10.44-7.86a6,6,0,0,0-6.34-.55,5.55,5.55,0,0,0-1.35.92l-10,7.5c-32.25,24.28-88.79,24.29-121,0l-10.44-7.86a6.06,6.06,0,1,0-7.29,9.68L110,452c36.74,27.69,98.83,27.71,135.61,0l6.75-5.08,6.75,5.08c18.38,13.85,43.09,20.78,67.81,20.78s49.43-6.93,67.81-20.78l10.57-8a6,6,0,0,0,1-8.41A6.11,6.11,0,0,0,397.76,434.55Z"/>
    <path d="M472.39,369.52,462,377.32c-32.23,24.27-88.77,24.29-121,0l-10.45-7.86a6.2,6.2,0,0,0-7.36.07l-10.35,7.8c-32.25,24.28-88.82,24.29-121,0l-10.44-7.86a6,6,0,0,0-6.34-.54,5.28,5.28,0,0,0-1.34.91l-10,7.5c-32.25,24.28-88.79,24.29-121,0l-10.45-7.86A6.06,6.06,0,1,0,25,379.14L35.41,387c36.76,27.7,98.85,27.69,135.61,0l6.75-5.09,6.75,5.08c36.75,27.69,98.84,27.7,135.62,0l6.78-5.12,6.8,5.11c18.38,13.85,43.1,20.78,67.81,20.78S451,400.84,469.33,387l10.35-7.8a6.06,6.06,0,1,0-7.29-9.68Z"/>
</svg>